<svg width="370" height="506" viewBox="0 0 370 506" fill="none" xmlns="http://www.w3.org/2000/svg">
<path d="M232.2 474.039V494.949C232.2 500.719 227.52 505.389 221.76 505.389H11.44C5.67 505.389 1 500.709 1 494.949V11.4088C1 5.64881 5.68 0.968811 11.44 0.968811H221.75C227.52 0.968811 232.19 5.64881 232.19 11.4088V31.9288" stroke="black" stroke-miterlimit="10"/>
<path d="M221.75 0.968811L111.71 247.949C110.03 251.239 110.03 255.129 111.71 258.419L221.75 505.399" stroke="black" stroke-miterlimit="10"/>
<path d="M242.43 474.139L230.2 501.279" stroke="black" stroke-miterlimit="10"/>
<path d="M230.88 6.15875L242.47 31.9388" stroke="black" stroke-miterlimit="10"/>
<path d="M1 11.4088L138.75 186.479" stroke="black" stroke-miterlimit="10"/>
<path d="M1 494.879L138.67 319.899" stroke="black" stroke-miterlimit="10"/>
<path d="M208.07 31.8288H369.36V474.029H207.3" stroke="black" stroke-width="1.01" stroke-miterlimit="10"/>
</svg>
