<svg width="520" height="349" viewBox="0 0 520 349" fill="none" xmlns="http://www.w3.org/2000/svg">
<g clip-path="url(#clip0_37_90)">
<path d="M455.529 183.44L455.379 183.12C460.339 168.25 454.009 164.66 454.009 164.66L453.779 164.79C453.779 175.7 444.819 185.59 444.819 185.59C448.569 184.67 452.129 183.97 455.519 183.43L455.529 183.44Z" fill="#89CACB" stroke="#231F20" stroke-miterlimit="10"/>
<path d="M515.199 215.41C504.389 231.28 461.409 243.63 461.409 243.63C467.079 247.97 470.789 251.86 473.049 255.33C477.209 254.09 507.379 244.95 510.229 238.83C510.229 238.83 525.839 219.83 515.199 215.41Z" fill="#89CACB" stroke="#231F20" stroke-miterlimit="10"/>
<path d="M462.039 278.69C429.519 292.08 345.989 278.69 345.989 278.69C325.589 271.68 329.409 288.25 329.409 288.25C336.949 280.3 342.019 288.75 342.019 288.75C345.519 294.44 359.539 299.26 359.539 299.26C387.569 312.4 413.849 310.65 413.849 310.65C478.239 303.64 475.609 267.29 475.609 267.29H475.489C472.959 275.19 462.029 278.69 462.029 278.69H462.039Z" fill="#89CACB" stroke="#231F20" stroke-miterlimit="10"/>
<path d="M328.779 320.77C304.549 337.35 226.759 330.33 226.759 330.33C212.439 330.97 205.279 327.6 202.099 322.83L201.829 322.85C201.829 322.85 212.819 351.82 264.499 347.88C264.499 347.88 327.139 348.32 335.459 311.96L334.849 312.01C332.649 317.48 328.779 320.76 328.779 320.76V320.77Z" fill="#89CACB" stroke="#231F20" stroke-miterlimit="10"/>
<path d="M196.499 295.82C196.179 295.86 195.879 295.91 195.559 295.98C184.139 298.57 152.799 318.22 152.799 318.22C124.109 336.07 78.8393 321.41 78.8393 321.41C28.4693 306.11 60.3493 269.13 60.3493 269.13C60.3493 269.13 21.4593 278.69 4.87931 246.81C2.13931 241.55 1.95931 236.92 3.52931 232.84L3.01931 232.68C-10.1207 288.75 47.2593 287.87 47.2593 287.87C47.2593 287.87 32.3693 312.4 80.9893 335.61C80.9893 335.61 138.369 358.82 179.109 316.78C179.109 316.78 186.119 308.46 202.759 302.76L203.049 302.38C204.139 299.99 205.089 298.45 205.089 298.45C207.889 294.54 198.789 295.52 196.499 295.82Z" fill="#89CACB" stroke="#231F20" stroke-miterlimit="10"/>
<path d="M461.409 243.62C461.409 243.62 504.399 231.28 515.199 215.4C518.069 211.18 518.679 206.72 515.599 202.17C515.599 202.17 501.759 176.17 455.529 183.44C452.139 183.97 448.579 184.68 444.829 185.6C444.829 185.6 453.779 175.71 453.789 164.8C453.789 157.76 450.069 150.3 437.819 144.8C437.819 144.8 411.009 131.09 399.939 135.11C390.549 63.52 350.569 -3.01 265.349 0.640001C189.889 3.87 117.919 61.09 120.919 135.86C121.279 144.9 121.629 153.63 122.139 162.01C59.0793 167.13 64.8093 206 64.8093 206C64.8093 206 11.4793 212.23 3.51932 232.84C1.94932 236.91 2.13932 241.55 4.86932 246.81C21.4493 278.69 60.3393 269.13 60.3393 269.13C60.3393 269.13 28.4593 306.11 78.8293 321.41C78.8293 321.41 124.099 336.08 152.789 318.22C152.789 318.22 184.129 298.57 195.549 295.98C195.859 295.91 196.169 295.86 196.489 295.82C198.769 295.52 207.869 294.54 205.079 298.45C205.079 298.45 204.119 299.99 203.039 302.38C200.729 307.46 197.809 316.41 202.099 322.83C205.279 327.6 212.439 330.97 226.759 330.33C226.759 330.33 304.549 337.34 328.779 320.77C328.779 320.77 332.649 317.49 334.849 312.02C337.209 306.17 337.659 297.81 329.419 288.26C329.419 288.26 325.589 271.68 345.999 278.7C345.999 278.7 429.529 292.09 462.049 278.7C462.049 278.7 472.979 275.2 475.509 267.3C476.549 264.07 476.169 260.09 473.059 255.32C470.799 251.85 467.089 247.96 461.419 243.62H461.409Z" fill="#EFC8D3" stroke="#231F20" stroke-miterlimit="10"/>
<path d="M60.3394 269.13C60.3394 269.13 107.709 244.28 142.659 247.05C142.659 247.05 208.109 252.04 212.539 273.12" stroke="#231F20" stroke-miterlimit="10"/>
<path d="M64.8093 206C64.8093 206 117.149 211.55 128.799 237.62" stroke="#231F20" stroke-miterlimit="10"/>
<path d="M444.829 185.6C444.829 185.6 413.869 193.8 405.549 203.23" stroke="#231F20" stroke-miterlimit="10"/>
<path d="M377.259 230.41C401.659 220.43 461.399 243.62 461.399 243.62" stroke="#231F20" stroke-miterlimit="10"/>
<path d="M341.579 277.64C341.579 277.64 328.029 265.38 356.419 237.62" stroke="#231F20" stroke-miterlimit="10"/>
<path d="M331.249 278.72C331.249 278.72 306.089 258.25 295.539 259.76" stroke="#231F20" stroke-miterlimit="10"/>
<path d="M205.819 296.36C205.819 296.36 209.689 278.29 225.829 275.71" stroke="#231F20" stroke-miterlimit="10"/>
<path d="M122.129 162.01C122.129 162.01 129.069 243.24 153.799 248.27" stroke="#231F20" stroke-miterlimit="10"/>
<path d="M399.929 135.1C399.929 135.1 408.199 212.65 370.069 231.93C370.069 231.93 314.329 257.08 263.619 260.01C263.619 260.01 216.679 268.81 188.179 255.4" stroke="#231F20" stroke-miterlimit="10"/>
<path d="M192.959 193.7C202.867 193.7 210.899 183.232 210.899 170.32C210.899 157.408 202.867 146.94 192.959 146.94C183.051 146.94 175.019 157.408 175.019 170.32C175.019 183.232 183.051 193.7 192.959 193.7Z" fill="#231F20"/>
<path d="M193.809 164.36C195.737 164.36 197.299 162.39 197.299 159.96C197.299 157.53 195.737 155.56 193.809 155.56C191.882 155.56 190.319 157.53 190.319 159.96C190.319 162.39 191.882 164.36 193.809 164.36Z" fill="white"/>
<path d="M310.399 178.83C320.307 178.83 328.339 168.362 328.339 155.45C328.339 142.538 320.307 132.07 310.399 132.07C300.491 132.07 292.459 142.538 292.459 155.45C292.459 168.362 300.491 178.83 310.399 178.83Z" fill="#231F20"/>
<path d="M311.249 149.49C313.177 149.49 314.739 147.52 314.739 145.09C314.739 142.66 313.177 140.69 311.249 140.69C309.322 140.69 307.759 142.66 307.759 145.09C307.759 147.52 309.322 149.49 311.249 149.49Z" fill="white"/>
<path d="M238.729 192.61C238.729 192.61 239.939 205.96 253.299 205.96C266.659 205.96 266.049 188.97 266.049 188.97" stroke="#231F20" stroke-width="3" stroke-miterlimit="10" stroke-linecap="round"/>
</g>
<defs>
<clipPath id="clip0_37_90">
<rect width="518.86" height="348.76" fill="white" transform="translate(0.549316)"/>
</clipPath>
</defs>
</svg>
