<svg width="519" height="349" viewBox="0 0 519 349" fill="none" xmlns="http://www.w3.org/2000/svg">
<g clip-path="url(#clip0_37_114)">
<path d="M454.98 183.44L454.83 183.12C459.79 168.25 453.46 164.66 453.46 164.66L453.23 164.79C453.23 175.7 444.27 185.59 444.27 185.59C448.02 184.67 451.58 183.97 454.97 183.43L454.98 183.44Z" fill="#EFC8D3" stroke="#231F20" stroke-miterlimit="10"/>
<path d="M514.65 215.41C503.84 231.28 460.86 243.63 460.86 243.63C466.53 247.97 470.24 251.86 472.5 255.33C476.66 254.09 506.83 244.95 509.68 238.83C509.68 238.83 525.29 219.83 514.65 215.41Z" fill="#EFC8D3" stroke="#231F20" stroke-miterlimit="10"/>
<path d="M461.49 278.69C428.97 292.08 345.44 278.69 345.44 278.69C325.04 271.68 328.86 288.25 328.86 288.25C336.4 280.3 341.47 288.75 341.47 288.75C344.97 294.44 358.99 299.26 358.99 299.26C387.02 312.4 413.3 310.65 413.3 310.65C477.69 303.64 475.06 267.29 475.06 267.29H474.94C472.41 275.19 461.48 278.69 461.48 278.69H461.49Z" fill="#EFC8D3" stroke="#231F20" stroke-miterlimit="10"/>
<path d="M328.23 320.77C304 337.35 226.21 330.33 226.21 330.33C211.89 330.97 204.73 327.6 201.55 322.83L201.28 322.85C201.28 322.85 212.27 351.82 263.95 347.88C263.95 347.88 326.59 348.32 334.91 311.96L334.3 312.01C332.1 317.48 328.23 320.76 328.23 320.76V320.77Z" fill="#EFC8D3" stroke="#231F20" stroke-miterlimit="10"/>
<path d="M195.95 295.82C195.63 295.86 195.33 295.91 195.01 295.98C183.59 298.57 152.25 318.22 152.25 318.22C123.56 336.07 78.29 321.41 78.29 321.41C27.92 306.11 59.8 269.13 59.8 269.13C59.8 269.13 20.91 278.69 4.33 246.81C1.59 241.55 1.41 236.92 2.98 232.84L2.47 232.68C-10.67 288.75 46.71 287.87 46.71 287.87C46.71 287.87 31.82 312.4 80.44 335.61C80.44 335.61 137.82 358.82 178.56 316.78C178.56 316.78 185.57 308.46 202.21 302.76L202.5 302.38C203.59 299.99 204.54 298.45 204.54 298.45C207.34 294.54 198.24 295.52 195.95 295.82Z" fill="#EFC8D3" stroke="#231F20" stroke-miterlimit="10"/>
<path d="M460.86 243.62C460.86 243.62 503.85 231.28 514.65 215.4C517.52 211.18 518.13 206.72 515.05 202.17C515.05 202.17 501.21 176.17 454.98 183.44C451.59 183.97 448.03 184.68 444.28 185.6C444.28 185.6 453.23 175.71 453.24 164.8C453.24 157.76 449.52 150.3 437.27 144.8C437.27 144.8 410.46 131.09 399.39 135.11C390 63.52 350.02 -3.01 264.8 0.640001C189.34 3.87 117.37 61.09 120.37 135.86C120.73 144.9 121.08 153.63 121.59 162.01C58.53 167.13 64.26 206 64.26 206C64.26 206 10.93 212.23 2.97 232.84C1.4 236.91 1.59001 241.55 4.32001 246.81C20.9 278.69 59.79 269.13 59.79 269.13C59.79 269.13 27.91 306.11 78.28 321.41C78.28 321.41 123.55 336.08 152.24 318.22C152.24 318.22 183.58 298.57 195 295.98C195.31 295.91 195.62 295.86 195.94 295.82C198.22 295.52 207.32 294.54 204.53 298.45C204.53 298.45 203.57 299.99 202.49 302.38C200.18 307.46 197.26 316.41 201.55 322.83C204.73 327.6 211.89 330.97 226.21 330.33C226.21 330.33 304 337.34 328.23 320.77C328.23 320.77 332.1 317.49 334.3 312.02C336.66 306.17 337.11 297.81 328.87 288.26C328.87 288.26 325.04 271.68 345.45 278.7C345.45 278.7 428.98 292.09 461.5 278.7C461.5 278.7 472.43 275.2 474.96 267.3C476 264.07 475.62 260.09 472.51 255.32C470.25 251.85 466.54 247.96 460.87 243.62H460.86Z" fill="#89CACB" stroke="#231F20" stroke-miterlimit="10"/>
<path d="M59.79 269.13C59.79 269.13 107.16 244.28 142.11 247.05C142.11 247.05 207.56 252.04 211.99 273.12" stroke="#231F20" stroke-miterlimit="10"/>
<path d="M64.26 206C64.26 206 116.6 211.55 128.25 237.62" stroke="#231F20" stroke-miterlimit="10"/>
<path d="M444.28 185.6C444.28 185.6 413.32 193.8 405 203.23" stroke="#231F20" stroke-miterlimit="10"/>
<path d="M376.71 230.41C401.11 220.43 460.85 243.62 460.85 243.62" stroke="#231F20" stroke-miterlimit="10"/>
<path d="M341.03 277.64C341.03 277.64 327.48 265.38 355.87 237.62" stroke="#231F20" stroke-miterlimit="10"/>
<path d="M330.7 278.72C330.7 278.72 305.54 258.25 294.99 259.76" stroke="#231F20" stroke-miterlimit="10"/>
<path d="M205.27 296.36C205.27 296.36 209.14 278.29 225.28 275.71" stroke="#231F20" stroke-miterlimit="10"/>
<path d="M121.58 162.01C121.58 162.01 128.52 243.24 153.25 248.27" stroke="#231F20" stroke-miterlimit="10"/>
<path d="M399.38 135.1C399.38 135.1 407.65 212.65 369.52 231.93C369.52 231.93 313.78 257.08 263.07 260.01C263.07 260.01 216.13 268.81 187.63 255.4" stroke="#231F20" stroke-miterlimit="10"/>
<path d="M239.68 202.58C239.68 202.58 238.77 186.86 248.7 185.96C258.62 185.05 263.71 200.39 263.71 200.39" stroke="#231F20" stroke-width="3" stroke-miterlimit="10" stroke-linecap="round"/>
<path d="M278.61 150.43L307.74 141.85C308.33 141.67 308.96 141.97 309.2 142.54C311.5 148.04 321.42 174.62 300.91 179.73C278.71 185.25 277.72 157.06 277.73 151.59C277.73 151.05 278.09 150.58 278.6 150.43H278.61Z" fill="#231F20"/>
<path d="M185.03 148.33L216.89 149.81C217.51 149.77 218.06 150.19 218.17 150.8C219.23 156.66 224.59 185.26 203.46 185.83C180.59 186.45 182.73 154.61 183.92 149.27C184.04 148.74 184.48 148.36 185.02 148.33H185.03Z" fill="#231F20"/>
<path d="M303.45 152.72C305.295 152.72 306.79 151.225 306.79 149.38C306.79 147.535 305.295 146.04 303.45 146.04C301.605 146.04 300.11 147.535 300.11 149.38C300.11 151.225 301.605 152.72 303.45 152.72Z" fill="white"/>
<path d="M210.99 160.24C212.835 160.24 214.33 158.745 214.33 156.9C214.33 155.055 212.835 153.56 210.99 153.56C209.145 153.56 207.65 155.055 207.65 156.9C207.65 158.745 209.145 160.24 210.99 160.24Z" fill="white"/>
</g>
<defs>
<clipPath id="clip0_37_114">
<rect width="518.86" height="348.76" fill="white"/>
</clipPath>
</defs>
</svg>
