<svg width="430" height="555" viewBox="0 0 430 555" fill="none" xmlns="http://www.w3.org/2000/svg">
<path d="M171.709 164.853C259.519 169.463 323.189 257.463 329.199 359.773C335.499 466.923 269.239 553.883 165.449 553.883C61.6594 553.883 -2.58055 466.123 1.69945 359.773C5.90945 255.113 68.4794 170.523 155.299 164.953" stroke="#231F20" stroke-width="1.13" stroke-miterlimit="10"/>
<path d="M238.769 281.663H89.4094C82.782 281.663 77.4094 287.035 77.4094 293.663V431.643C77.4094 438.27 82.782 443.643 89.4094 443.643H238.769C245.397 443.643 250.769 438.27 250.769 431.643V293.663C250.769 287.035 245.397 281.663 238.769 281.663Z" stroke="#231F20" stroke-width="1.16" stroke-miterlimit="10"/>
<path d="M112.459 518.723C119.556 518.723 125.309 512.969 125.309 505.872C125.309 498.776 119.556 493.023 112.459 493.023C105.363 493.023 99.6094 498.776 99.6094 505.872C99.6094 512.969 105.363 518.723 112.459 518.723Z" stroke="#231F20" stroke-width="1.16" stroke-miterlimit="10"/>
<path d="M163.85 532.373C170.946 532.373 176.7 526.619 176.7 519.523C176.7 512.426 170.946 506.673 163.85 506.673C156.753 506.673 151 512.426 151 519.523C151 526.619 156.753 532.373 163.85 532.373Z" stroke="#231F20" stroke-width="1.16" stroke-miterlimit="10"/>
<path d="M215.399 519.732C222.496 519.732 228.249 513.979 228.249 506.882C228.249 499.786 222.496 494.032 215.399 494.032C208.302 494.032 202.549 499.786 202.549 506.882C202.549 513.979 208.302 519.732 215.399 519.732Z" stroke="#231F20" stroke-width="1.16" stroke-miterlimit="10"/>
<path d="M142.139 166.153C142.139 166.153 143.519 149.903 157.699 148.513" stroke="#231F20" stroke-width="1.16" stroke-miterlimit="10"/>
<path d="M184.329 166.152C184.329 166.152 181.819 148.692 169.369 148.692" stroke="#231F20" stroke-width="1.16" stroke-miterlimit="10"/>
<path d="M169.249 162.013C171.559 163.733 173.059 166.483 173.059 169.593C173.059 174.803 168.839 179.023 163.629 179.023C158.419 179.023 154.199 174.803 154.199 169.593C154.199 166.743 155.469 164.183 157.469 162.453" stroke="#231F20" stroke-width="1.26" stroke-miterlimit="10"/>
<path d="M163.529 175.883C163.529 175.883 169.159 176.043 169.159 170.253V113.343C169.159 113.343 168.219 108.183 163.689 108.183C163.689 108.183 157.589 107.553 157.589 114.123V171.653C157.589 171.653 158.059 175.873 163.529 175.873V175.883Z" stroke="#231F20" stroke-width="1.13" stroke-miterlimit="10"/>
<path d="M197.37 456.572L239.96 462.772C240.93 462.912 241.859 462.352 242.189 461.422L263.13 402.042C263.26 401.672 263.42 401.322 263.62 400.982L277.359 377.832C277.859 376.992 277.91 375.962 277.5 375.072L255.89 328.472C255.55 327.732 255.439 326.902 255.579 326.092L261.419 293.062C261.579 292.182 261.209 291.292 260.479 290.782L225.68 266.292C225 265.812 224.13 265.732 223.37 266.052L200.99 275.752C200.27 276.062 199.46 276.112 198.7 275.872L145.48 259.092C144.6 258.812 143.65 258.902 142.84 259.332L114.16 274.562C113.45 274.942 112.65 275.102 111.85 275.022L78.5495 271.722C77.7495 271.642 77.0295 272.232 76.9495 273.032L72.4795 320.912C72.4395 321.342 72.3395 321.772 72.1895 322.172L49.5195 382.452C49.2395 383.192 49.3195 384.032 49.7395 384.702L69.4795 416.652C69.7895 417.152 69.9395 417.722 69.9195 418.312L69.1595 441.812C69.1395 442.522 69.4895 443.192 70.0895 443.572L99.6695 462.252C100.16 462.562 100.74 462.662 101.3 462.532L128.31 456.222C129.27 456.002 130.28 456.182 131.1 456.722L158.03 474.592C158.75 475.072 159.68 475.122 160.45 474.732L195.329 456.902C195.949 456.582 196.65 456.472 197.34 456.572H197.37Z" stroke="#231F20" stroke-width="1.16" stroke-miterlimit="10"/>
<path d="M201.689 119.923C207.063 119.923 211.419 115.566 211.419 110.193C211.419 104.819 207.063 100.463 201.689 100.463C196.316 100.463 191.959 104.819 191.959 110.193C191.959 115.566 196.316 119.923 201.689 119.923Z" stroke="#231F20" stroke-width="1.16" stroke-miterlimit="10"/>
<path d="M169.179 118.893C170.629 115.343 174.119 112.843 178.189 112.843C183.559 112.843 187.919 117.193 187.919 122.573C187.919 127.953 183.569 132.303 178.189 132.303C174.159 132.303 170.699 129.853 169.229 126.363" stroke="#231F20" stroke-width="1.16" stroke-miterlimit="10"/>
<path d="M157.509 126.763C156.029 130.253 152.579 132.703 148.549 132.703C143.179 132.703 138.819 128.353 138.819 122.973C138.819 117.593 143.169 113.243 148.549 113.243C152.579 113.243 156.039 115.693 157.509 119.183" stroke="#231F20" stroke-width="1.16" stroke-miterlimit="10"/>
<path d="M130.639 117.823C136.013 117.823 140.369 113.466 140.369 108.093C140.369 102.719 136.013 98.3625 130.639 98.3625C125.266 98.3625 120.909 102.719 120.909 108.093C120.909 113.466 125.266 117.823 130.639 117.823Z" stroke="#231F20" stroke-width="1.16" stroke-miterlimit="10"/>
<path d="M125.669 93.9525C131.043 93.9525 135.399 89.5963 135.399 84.2225C135.399 78.8488 131.043 74.4925 125.669 74.4925C120.296 74.4925 115.939 78.8488 115.939 84.2225C115.939 89.5963 120.296 93.9525 125.669 93.9525Z" stroke="#231F20" stroke-width="1.16" stroke-miterlimit="10"/>
<path d="M136.77 68.5425C142.143 68.5425 146.5 64.1862 146.5 58.8125C146.5 53.4388 142.143 49.0825 136.77 49.0825C131.396 49.0825 127.04 53.4388 127.04 58.8125C127.04 64.1862 131.396 68.5425 136.77 68.5425Z" stroke="#231F20" stroke-width="1.16" stroke-miterlimit="10"/>
<path d="M160.679 47.2225C166.053 47.2225 170.409 42.8662 170.409 37.4925C170.409 32.1188 166.053 27.7625 160.679 27.7625C155.306 27.7625 150.949 32.1188 150.949 37.4925C150.949 42.8662 155.306 47.2225 160.679 47.2225Z" stroke="#231F20" stroke-width="1.16" stroke-miterlimit="10"/>
<path d="M188.239 33.4525C193.613 33.4525 197.969 29.0963 197.969 23.7225C197.969 18.3488 193.613 13.9925 188.239 13.9925C182.866 13.9925 178.509 18.3488 178.509 23.7225C178.509 29.0963 182.866 33.4525 188.239 33.4525Z" stroke="#231F20" stroke-width="1.16" stroke-miterlimit="10"/>
<path d="M220.739 25.3525C226.113 25.3525 230.469 20.9962 230.469 15.6225C230.469 10.2488 226.113 5.8925 220.739 5.8925C215.366 5.8925 211.009 10.2488 211.009 15.6225C211.009 20.9962 215.366 25.3525 220.739 25.3525Z" stroke="#231F20" stroke-width="1.16" stroke-miterlimit="10"/>
<path d="M252.469 22.4925C257.843 22.4925 262.199 18.1362 262.199 12.7625C262.199 7.38879 257.843 3.03252 252.469 3.03252C247.096 3.03252 242.739 7.38879 242.739 12.7625C242.739 18.1362 247.096 22.4925 252.469 22.4925Z" stroke="#231F20" stroke-width="1.16" stroke-miterlimit="10"/>
<path d="M291.189 149.402C296.563 149.402 300.919 145.046 300.919 139.673C300.919 134.299 296.563 129.942 291.189 129.942C285.816 129.942 281.459 134.299 281.459 139.673C281.459 145.046 285.816 149.402 291.189 149.402Z" stroke="#231F20" stroke-width="1.16" stroke-miterlimit="10"/>
<path d="M301.279 178.873C306.653 178.873 311.009 174.516 311.009 169.143C311.009 163.769 306.653 159.413 301.279 159.413C295.906 159.413 291.549 163.769 291.549 169.143C291.549 174.516 295.906 178.873 301.279 178.873Z" stroke="#231F20" stroke-width="1.16" stroke-miterlimit="10"/>
<path d="M315.929 204.943C321.303 204.943 325.659 200.586 325.659 195.213C325.659 189.839 321.303 185.483 315.929 185.483C310.556 185.483 306.199 189.839 306.199 195.213C306.199 200.586 310.556 204.943 315.929 204.943Z" stroke="#231F20" stroke-width="1.16" stroke-miterlimit="10"/>
<path d="M338.129 225.923C343.503 225.923 347.859 221.566 347.859 216.193C347.859 210.819 343.503 206.463 338.129 206.463C332.756 206.463 328.399 210.819 328.399 216.193C328.399 221.566 332.756 225.923 338.129 225.923Z" stroke="#231F20" stroke-width="1.16" stroke-miterlimit="10"/>
<path d="M366.899 234.803C372.273 234.803 376.629 230.446 376.629 225.073C376.629 219.699 372.273 215.343 366.899 215.343C361.526 215.343 357.169 219.699 357.169 225.073C357.169 230.446 361.526 234.803 366.899 234.803Z" stroke="#231F20" stroke-width="1.16" stroke-miterlimit="10"/>
<path d="M395.629 229.943C401.003 229.943 405.359 225.586 405.359 220.213C405.359 214.839 401.003 210.483 395.629 210.483C390.256 210.483 385.899 214.839 385.899 220.213C385.899 225.586 390.256 229.943 395.629 229.943Z" stroke="#231F20" stroke-width="1.16" stroke-miterlimit="10"/>
<path d="M413.149 211.113C418.523 211.113 422.879 206.756 422.879 201.383C422.879 196.009 418.523 191.653 413.149 191.653C407.776 191.653 403.419 196.009 403.419 201.383C403.419 206.756 407.776 211.113 413.149 211.113Z" stroke="#231F20" stroke-width="1.16" stroke-miterlimit="10"/>
<path d="M419.27 181.402C424.643 181.402 429 177.046 429 171.673C429 166.299 424.643 161.942 419.27 161.942C413.896 161.942 409.54 166.299 409.54 171.673C409.54 177.046 413.896 181.402 419.27 181.402Z" stroke="#231F20" stroke-width="1.16" stroke-miterlimit="10"/>
<path d="M415.339 151.963C420.713 151.963 425.069 147.606 425.069 142.233C425.069 136.859 420.713 132.503 415.339 132.503C409.966 132.503 405.609 136.859 405.609 142.233C405.609 147.606 409.966 151.963 415.339 151.963Z" stroke="#231F20" stroke-width="1.16" stroke-miterlimit="10"/>
<path d="M402.869 121.892C408.243 121.892 412.599 117.536 412.599 112.162C412.599 106.789 408.243 102.432 402.869 102.432C397.496 102.432 393.139 106.789 393.139 112.162C393.139 117.536 397.496 121.892 402.869 121.892Z" stroke="#231F20" stroke-width="1.16" stroke-miterlimit="10"/>
<path d="M386.25 93.6525C391.623 93.6525 395.98 89.2962 395.98 83.9225C395.98 78.5488 391.623 74.1925 386.25 74.1925C380.876 74.1925 376.52 78.5488 376.52 83.9225C376.52 89.2962 380.876 93.6525 386.25 93.6525Z" stroke="#231F20" stroke-width="1.16" stroke-miterlimit="10"/>
<path d="M365.33 68.5325C370.703 68.5325 375.06 64.1762 375.06 58.8025C375.06 53.4288 370.703 49.0725 365.33 49.0725C359.956 49.0725 355.6 53.4288 355.6 58.8025C355.6 64.1762 359.956 68.5325 365.33 68.5325Z" stroke="#231F20" stroke-width="1.16" stroke-miterlimit="10"/>
<path d="M226.349 109.233C231.723 109.233 236.079 104.876 236.079 99.5026C236.079 94.1288 231.723 89.7726 226.349 89.7726C220.976 89.7726 216.619 94.1288 216.619 99.5026C216.619 104.876 220.976 109.233 226.349 109.233Z" stroke="#231F20" stroke-width="1.16" stroke-miterlimit="10"/>
<path d="M253.029 112.252C258.403 112.252 262.759 107.896 262.759 102.522C262.759 97.1487 258.403 92.7925 253.029 92.7925C247.656 92.7925 243.299 97.1487 243.299 102.522C243.299 107.896 247.656 112.252 253.029 112.252Z" stroke="#231F20" stroke-width="1.16" stroke-miterlimit="10"/>
<path d="M276.33 126.892C281.703 126.892 286.06 122.536 286.06 117.162C286.06 111.789 281.703 107.432 276.33 107.432C270.956 107.432 266.6 111.789 266.6 117.162C266.6 122.536 270.956 126.892 276.33 126.892Z" stroke="#231F20" stroke-width="1.16" stroke-miterlimit="10"/>
<path d="M292.599 2.34251C292.599 2.34251 279.719 -3.49749 276.609 8.56251L273.659 18.2925C273.659 18.2925 269.989 29.5725 281.659 32.3025L332.629 49.8125C332.629 49.8125 345.079 53.3125 347.409 47.4825L352.859 36.2025C352.859 36.2025 356.869 27.0125 347.529 23.5125L339.039 19.9225C338.009 19.4325 336.809 19.4725 335.829 20.0625C334.319 20.9625 331.119 21.9325 327.479 22.4325C320.729 23.3625 313.879 21.4125 308.539 17.1825C305.119 14.4625 301.189 10.6325 299.349 6.29251C298.919 5.28251 298.099 4.50251 297.039 4.19251L292.589 2.37251L292.599 2.34251Z" stroke="#231F20" stroke-width="1.16" stroke-miterlimit="10"/>
<path d="M187.609 119.443L193.339 115.613" stroke="#231F20" stroke-width="1.16" stroke-miterlimit="10"/>
<path d="M210.339 105.423L216.919 103.083" stroke="#231F20" stroke-width="1.16" stroke-miterlimit="10"/>
<path d="M236.069 99.5025L243.259 100.533" stroke="#231F20" stroke-width="1.16" stroke-miterlimit="10"/>
<path d="M261.529 107.753L267.689 112.003" stroke="#231F20" stroke-width="1.16" stroke-miterlimit="10"/>
<path d="M282.979 124.533L286.59 131.123" stroke="#231F20" stroke-width="1.16" stroke-miterlimit="10"/>
<path d="M294.239 149.173L297.209 160.013" stroke="#231F20" stroke-width="1.16" stroke-miterlimit="10"/>
<path d="M136.419 116.042L139.599 118.802" stroke="#231F20" stroke-width="1.16" stroke-miterlimit="10"/>
<path d="M125.669 93.9425L126.009 99.0525" stroke="#231F20" stroke-width="1.16" stroke-miterlimit="10"/>
<path d="M130.889 66.7626L128.349 74.4126" stroke="#231F20" stroke-width="1.16" stroke-miterlimit="10"/>
<path d="M143.209 51.4725L152.989 43.1825" stroke="#231F20" stroke-width="1.16" stroke-miterlimit="10"/>
<path d="M169.339 32.9925L179.319 28.3125" stroke="#231F20" stroke-width="1.16" stroke-miterlimit="10"/>
<path d="M197.799 21.3025L210.969 17.9125" stroke="#231F20" stroke-width="1.16" stroke-miterlimit="10"/>
<path d="M230.469 15.6225L242.409 14.5125" stroke="#231F20" stroke-width="1.16" stroke-miterlimit="10"/>
<path d="M261.949 14.2925L274.699 14.9325" stroke="#231F20" stroke-width="1.16" stroke-miterlimit="10"/>
<path d="M305.069 178.062L309.529 187.622" stroke="#231F20" stroke-width="1.16" stroke-miterlimit="10"/>
<path d="M321.85 202.913L329.5 210.773" stroke="#231F20" stroke-width="1.16" stroke-miterlimit="10"/>
<path d="M346.489 221.613L357.169 225.073" stroke="#231F20" stroke-width="1.16" stroke-miterlimit="10"/>
<path d="M376.859 226.493L387.059 225.643" stroke="#231F20" stroke-width="1.16" stroke-miterlimit="10"/>
<path d="M403.839 215.023L408.299 210.353" stroke="#231F20" stroke-width="1.16" stroke-miterlimit="10"/>
<path d="M416.799 192.293L417.859 181.463" stroke="#231F20" stroke-width="1.16" stroke-miterlimit="10"/>
<path d="M419.269 161.953L417.649 151.723" stroke="#231F20" stroke-width="1.16" stroke-miterlimit="10"/>
<path d="M412.34 132.823L407.24 120.503" stroke="#231F20" stroke-width="1.16" stroke-miterlimit="10"/>
<path d="M398.319 103.513L391.939 91.6125" stroke="#231F20" stroke-width="1.16" stroke-miterlimit="10"/>
<path d="M380.259 75.8925L371.549 66.3325" stroke="#231F20" stroke-width="1.16" stroke-miterlimit="10"/>
<path d="M357.75 52.1026L349.04 44.0326" stroke="#231F20" stroke-width="1.16" stroke-miterlimit="10"/>
<path d="M329.279 382.273L277.869 376.503" stroke="#231F20" stroke-miterlimit="10"/>
<path d="M2.26953 390.303L49.2795 383.603" stroke="#231F20" stroke-miterlimit="10"/>
</svg>
